{"accessors" : [{"bufferView" : 0, "byteOffset" : 0, "componentType" : 5123, "count" : 31158, "type" : "SCALAR", "max" : [6238], "min" : [0]}, {"bufferView" : 1, "byteOffset" : 0, "componentType" : 5126, "count" : 6239, "type" : "VEC3", "max" : [95.09554290771484, 200.0767364501953, 20.716028213500977], "min" : [-95.13662719726562, -0.42765840888023376, -26.151721954345703], "name" : "POSITION"}, {"bufferView" : 1, "byteOffset" : 12, "componentType" : 5126, "count" : 6239, "type" : "VEC3", "max" : [0.9996786713600159, 0.9997475743293762, 1.000003457069397], "min" : [-0.9999503493309021, -1.0000039339065552, -1.0000041723251343], "name" : "NORMAL"}, {"bufferView" : 1, "byteOffset" : 24, "componentType" : 5126, "count" : 6239, "type" : "VEC2", "max" : [0.9970920085906982, 0.9947500228881836], "min" : [0.005861000157892704, 0.004399001598358154], "name" : "TEXCOORD_0"}, {"bufferView" : 3, "byteOffset" : 0, "componentType" : 5126, "normalized" : false, "count" : 49, "type" : "SCALAR", "max" : [1.6], "min" : [0]}, {"bufferView" : 3, "byteOffset" : 196, "componentType" : 5126, "normalized" : false, "count" : 49, "type" : "VEC3", "max" : [1.498098373413086, 114.85700225830078, 47.99739074707031], "min" : [-8.03843879699707, 98.37519073486328, 0.37146782875061035]}], "animations" : [{"channels" : [{"sampler" : 0, "target" : {"node" : -1, "path" : "translation"}}], "samplers" : [{"input" : 4, "interpolation" : "CUBICSPLINE", "output" : 5}], "name" : "mixamo.com"}], "asset" : {"generator" : "Aspose.3D 24.6.0", "version" : "2.0"}, "buffers" : [{"uri" : "buffer.bin", "byteLength" : 3742692}], "bufferViews" : [{"buffer" : 0, "byteOffset" : 0, "byteLength" : 62316, "target" : 34963}, {"buffer" : 0, "byteOffset" : 62320, "byteLength" : 199648, "byteStride" : 32, "target" : 34962}, {"buffer" : 0, "byteOffset" : 261972, "byteLength" : 3479930}, {"buffer" : 0, "byteOffset" : 3741904, "byteLength" : 784}], "images" : [{"uri" : "C:\\Users\\zachary\\Dropbox (Adobe)\\Mixamo\\Characters\\Akai E Espiritu\\akai_e_espiritu_20210811.fbm\\akai_normal.png"}, {"mimeType" : "image/png", "bufferView" : 2}], "materials" : [{"name" : "Akai_MAT", "pbrMetallicRoughness" : {"baseColorFactor" : [1, 1, 1, 1], "baseColorTexture" : {"index" : 1, "texCoord" : 0}, "metallicFactor" : 1, "roughnessFactor" : 1}, "normalTexture" : {"index" : 0, "texCoord" : 0, "scale" : 1}, "emissiveFactor" : [0, 0, 0], "alphaMode" : "OPAQUE", "doubleSided" : false}], "meshes" : [{"primitives" : [{"attributes" : {"POSITION" : 1, "NORMAL" : 2, "TEXCOORD_0" : 3}, "indices" : 0, "material" : 0, "mode" : 4}], "name" : "Akai"}], "nodes" : [{"mesh" : 0, "name" : "Akai"}], "samplers" : [{"magFilter" : 9729, "minFilter" : 9729, "wrapS" : 10497, "wrapT" : 10497}, {"magFilter" : 9729, "minFilter" : 9729, "wrapS" : 10497, "wrapT" : 10497}], "scene" : 0, "scenes" : [{"nodes" : [0]}], "textures" : [{"sampler" : 0, "source" : 0, "name" : "file2"}, {"sampler" : 1, "source" : 1, "name" : "file1"}]}